<?xml version="1.0" encoding="UTF-8"?>
<svg id="Layer_1" xmlns="http://www.w3.org/2000/svg" xmlns:xlink="http://www.w3.org/1999/xlink" viewBox="0 0 136.17 151.81">
  <defs>
    <style>
      .cls-1 {
        fill: none;
      }

      .cls-2 {
        fill: #b5b5b5;
      }

      .cls-3 {
        clip-path: url(#clippath-1);
      }

      .cls-4 {
        clip-path: url(#clippath);
      }
    </style>
    <clipPath id="clippath">
      <rect class="cls-1" width="136.17" height="151.81"/>
    </clipPath>
    <clipPath id="clippath-1">
      <rect class="cls-1" width="136.17" height="151.81"/>
    </clipPath>
  </defs>
  <g class="cls-4">
    <g class="cls-3">
      <path class="cls-2" d="M131.52,53.06c-1.29,1.72-1.12,6.33-1.72,8.38-2.99,10.35-7.09,9.67-10.32,11.6-3.22,1.93-6.22,7.52-7.73,10.31-1.5,2.8-1.93,7.95-4.29,6.23-2.37-1.72-5.44-4.08-7.95-5.37-3.39-1.72-16.99-7.82-23.21-7.3-3.67.31-6.34,1.96-8.21,2.36-1.87-.4-4.54-2.06-8.21-2.36-6.21-.51-19.82,5.58-23.21,7.3-2.52,1.29-5.58,3.65-7.95,5.38-2.36,1.72-2.79-3.44-4.3-6.23-1.5-2.8-4.51-8.38-7.73-10.32-3.22-1.94-7.32-1.25-10.31-11.6-.6-2.05-.43-6.66-1.72-8.38-1.29-1.72-8.17-8.38-2.37,23.21,5.81,31.59,17.62,38.68,17.62,38.68,4.94,12.25,25.14,27.29,25.14,27.29,9.33,11.11,21.25,9.49,23.03,9.49s13.7,1.61,23.03-9.49c0,0,20.19-15.04,25.14-27.29,0,0,11.82-7.09,17.62-38.67,5.8-31.59-1.08-24.93-2.36-23.21M93.49,120.1c-6.66,3.65-13.75,15.9-17.41,12.89-3.65-3.01-3.87-6.88-3.01-9.24.86-2.37-1.29-4.51,3.86-8.81,5.16-4.29,6.55-6.84,4.95-9.24-2.16-3.22-8.62-.6-13.56-.64h-.46c-4.94.04-11.41-2.58-13.56.65-1.6,2.39-.22,4.94,4.94,9.24,5.16,4.3,3.01,6.44,3.87,8.81.86,2.36.65,6.23-3.01,9.24-3.65,3.01-10.75-9.24-17.4-12.89-6.66-3.65-4.73-18.91-3.65-19.98,1.07-1.08,1.07-5.16,9.66-2.58,6.18,1.85,14.68-3.17,19.38-8.3,4.7,5.13,13.2,10.15,19.38,8.3,8.6-2.58,8.6,1.5,9.67,2.58,1.07,1.08,3.01,16.33-3.65,19.98"/>
      <polygon class="cls-2" points="44.79 16.58 44.79 22.77 23.9 31.94 44.79 41.17 44.79 47.5 19.19 35.71 19.19 28.64 44.79 16.58"/>
      <polygon class="cls-2" points="77.53 0 83.19 0 59.21 61.99 53.55 61.99 77.53 0"/>
      <polygon class="cls-2" points="113.24 31.94 91.95 22.77 91.95 16.58 117.55 28.64 117.55 35.71 91.95 47.5 91.95 41.17 113.24 31.94"/>
    </g>
  </g>
</svg>