<svg width="400" height="400" viewBox="0 0 400 400" fill="none" xmlns="http://www.w3.org/2000/svg">
<circle cx="200" cy="200" r="200" fill="white"/>
<path d="M88.8889 98.4127H176.212C195.955 98.4127 213.335 102.313 228.353 110.113C243.539 117.732 255.267 128.707 263.535 143.039C271.972 157.37 276.191 174.24 276.191 193.651C276.191 213.061 271.972 229.932 263.535 244.263C255.267 258.594 243.539 269.66 228.353 277.46C213.335 285.079 195.955 288.889 176.212 288.889H88.8889V98.4127ZM173.681 238.821C186.505 238.821 196.714 234.921 204.307 227.12C212.069 219.138 215.95 207.982 215.95 193.651C215.95 179.32 212.069 168.254 204.307 160.454C196.714 152.472 186.505 148.481 173.681 148.481H148.623V238.821H173.681Z" fill="black"/>
<path d="M305.905 290.635C299.27 290.635 293.741 288.54 289.317 284.349C285.011 280.042 282.857 274.571 282.857 267.936C282.857 261.302 285.011 255.947 289.317 251.873C293.741 247.682 299.27 245.587 305.905 245.587C312.54 245.587 318.011 247.682 322.317 251.873C326.741 255.947 328.952 261.302 328.952 267.936C328.952 274.571 326.741 280.042 322.317 284.349C318.011 288.54 312.54 290.635 305.905 290.635Z" fill="#DA3568"/>
</svg>
