<?xml version="1.0" encoding="utf-8"?>
<!-- Generator: Adobe Illustrator 23.0.2, SVG Export Plug-In . SVG Version: 6.00 Build 0)  -->
<svg version="1.1" id="Layer_1" xmlns="http://www.w3.org/2000/svg" xmlns:xlink="http://www.w3.org/1999/xlink" x="0px" y="0px"
	 viewBox="0 0 337.49 337.49" style="enable-background:new 0 0 337.49 337.49;" xml:space="preserve">
<style type="text/css">
	.st0{display:none;}
	.st1{display:inline;}
	.st2{stroke:#000000;stroke-width:0.5;stroke-linecap:round;stroke-linejoin:round;stroke-miterlimit:10;}
	.st3{fill:none;}
	.st4{fill:#0511F2;}
</style>
<g>
	<g>
		<path class="st4" d="M305.01,119.67c-2.77,3.69-2.41,13.6-3.69,18.01c-6.43,22.23-15.24,20.76-22.17,24.93
			c-6.91,4.15-13.37,16.15-16.61,22.15c-3.23,6.01-4.15,17.09-9.23,13.39c-5.08-3.69-11.68-8.77-17.09-11.54
			c-7.28-3.71-36.51-16.79-49.85-15.69c-7.88,0.65-13.61,4.21-17.63,5.08c-4.01-0.87-9.75-4.42-17.63-5.08
			c-13.34-1.11-42.58,11.98-49.85,15.69c-5.41,2.76-12,7.85-17.07,11.55c-5.07,3.69-6-7.39-9.24-13.39
			c-3.22-6.01-9.69-18.01-16.61-22.16c-6.93-4.16-15.73-2.69-22.16-24.93c-1.28-4.41-0.93-14.31-3.69-18.01
			c-2.77-3.69-17.55-18-5.09,49.86c12.47,67.85,37.86,83.09,37.86,83.09c10.61,26.31,54.01,58.62,54.01,58.62
			c20.04,23.88,45.65,20.39,49.48,20.39c3.86,0,29.43,3.47,49.48-20.39c0,0,43.38-32.31,54.01-58.63c0,0,25.39-15.23,37.85-83.08
			C322.55,101.67,307.78,115.98,305.01,119.67z M223.31,263.69c-14.31,7.85-29.55,34.16-37.39,27.7c-7.84-6.46-8.3-14.77-6.46-19.85
			c1.84-5.09-2.77-9.7,8.3-18.93c11.08-9.23,14.06-14.7,10.62-19.85c-4.63-6.91-18.52-1.3-29.13-1.38l0,0c-0.13,0-0.28,0-0.41,0
			c-0.19,0-0.4,0-0.58,0l0,0c-10.62,0.08-24.5-5.54-29.14,1.39c-3.44,5.14-0.46,10.61,10.61,19.85c11.08,9.23,6.46,13.84,8.31,18.92
			c1.85,5.07,1.39,13.38-6.46,19.85c-7.85,6.46-23.08-19.85-37.38-27.7c-14.31-7.85-10.16-40.62-7.85-42.93
			c2.3-2.31,2.3-11.07,20.76-5.54c13.28,3.98,31.55-6.81,41.64-17.83c10.09,11.01,28.36,21.81,41.63,17.83
			c18.46-5.54,18.46,3.22,20.78,5.54C233.46,223.07,237.62,255.84,223.31,263.69z"/>
	</g>
	<g>
		<path class="st4" d="M118.69,41.29v13.32L73.83,74.29l44.86,19.83v13.61l-55-25.33V67.2L118.69,41.29z"/>
		<path class="st4" d="M189.04,5.69h12.16l-51.53,133.16h-12.16L189.04,5.69z"/>
		<path class="st4" d="M265.75,74.29l-45.74-19.68V41.29l55,25.91v15.2l-55,25.33V94.12L265.75,74.29z"/>
	</g>
</g>
</svg>
