<?xml version="1.0" encoding="UTF-8"?><svg id="Layer_2" xmlns="http://www.w3.org/2000/svg" viewBox="0 0 125.91 81.54"><defs><style>.cls-1{fill:#cd3433;stroke-width:0px;}</style></defs><g id="Layer_1-2"><path class="cls-1" d="m80.71,32.59c-.05-.28-.11-.56-.18-.84-.82-3.66-2.15-7.13-3.9-10.35-.31-.57-.63-1.13-.96-1.68-.17-.29-.35-.57-.53-.85-.71-1.11-1.46-2.17-2.27-3.2-.19-.25-.4-.51-.61-.76-.21-.25-.42-.5-.63-.75-2.12-2.47-4.55-4.68-7.21-6.57-.79-.57-1.61-1.11-2.45-1.63-.58-.36-1.18-.7-1.79-1.03-.55-.3-1.1-.58-1.66-.86-.27-.13-.54-.25-.81-.38-1.23-.56-2.49-1.07-3.78-1.51-.26-.09-.53-.18-.8-.26-.83-.27-1.66-.51-2.51-.71-.22-.06-.44-.11-.65-.16-.3-.07-.59-.14-.88-.19-.3-.07-.6-.13-.91-.18-2.03-.38-4.11-.6-6.23-.66-.31-.01-.61-.02-.92-.02h-.26c-2.22,0-4.4.18-6.52.52-.23.04-.46.08-.69.12-1.68.3-3.32.7-4.92,1.21-.62.19-1.23.39-1.84.62-.39.14-.77.29-1.15.44-.25.09-.49.2-.73.3-.43.18-.85.37-1.27.56-.47.22-.93.44-1.39.68-3.24,1.66-6.22,3.73-8.88,6.15-.47.42-.93.86-1.38,1.31-3.98,3.96-7.14,8.74-9.22,14.05-.1.26-.2.54-.3.81-.37,1-.7,2.02-.99,3.06-.07.25-.14.51-.2.76-.09.33-.17.66-.24.98-.25,1.06-.45,2.13-.61,3.22-.04.26-.08.53-.11.79-.17,1.32-.27,2.66-.31,4.01-.01.31-.02.61-.02.92v.26c0,2.11.16,4.18.47,6.2.09.61.2,1.21.32,1.81.03.13.05.27.09.41.12.58.25,1.16.4,1.74.42,1.63.94,3.23,1.55,4.77.24.61.5,1.21.76,1.8.58,1.27,1.22,2.51,1.92,3.71.28.5.59.99.89,1.48.43.65.86,1.3,1.32,1.93.13.18.26.35.39.53.78,1.04,1.62,2.05,2.5,3.02.44.49.89.96,1.35,1.42s.93.91,1.42,1.35c.24.22.48.44.73.65.49.42.99.84,1.51,1.25.51.4,1.04.79,1.57,1.17.82.58,1.67,1.14,2.54,1.66.53.33,1.07.64,1.63.94.54.3,1.1.59,1.66.86.18.09.37.18.55.26.76.36,1.54.69,2.33,1,.55.22,1.11.43,1.68.62.67.23,1.35.44,2.04.64.65.18,1.3.35,1.95.5.33.08.66.15.99.22.7.14,1.4.27,2.11.37.3.05.61.09.91.13,1.32.17,2.65.27,4,.31.3,0,.61.02.91.02h.28c2.16,0,4.29-.17,6.36-.5.51-.07,1.01-.16,1.51-.27,1.77-.34,3.49-.8,5.17-1.37.22-.07.45-.15.68-.24.48-.17.94-.34,1.4-.53.25-.09.49-.2.73-.3.43-.18.85-.37,1.27-.56.47-.22.93-.44,1.39-.68,1.77-.91,3.47-1.94,5.07-3.08.51-.36,1.02-.74,1.51-1.12,5.95-4.66,10.57-10.93,13.21-18.14.11-.3.22-.61.32-.92.35-1.01.65-2.03.91-3.07.07-.27.13-.53.19-.79.6-2.59.95-5.26,1.03-8.01.01-.3.02-.61.02-.91v-.28c0-2.8-.28-5.53-.83-8.18Zm-39.94,37.92c-16.4,0-29.74-13.34-29.74-29.74s13.34-29.74,29.74-29.74,29.74,13.34,29.74,29.74-13.34,29.74-29.74,29.74Z"/><path class="cls-1" d="m90.39,4.05c-.94-1.29-2.45-2.05-4.03-2.05-1.94,0-3.62,1.03-4.49,2.77-.87,1.72-.7,3.66.45,5.2,6.66,8.98,10.19,19.62,10.19,30.8s-3.53,21.81-10.19,30.8c-1.15,1.53-1.32,3.47-.45,5.2.87,1.73,2.55,2.77,4.49,2.77,1.57,0,3.08-.77,4.04-2.05,7.94-10.7,12.14-23.39,12.14-36.72s-4.2-26.03-12.15-36.72Z"/><path class="cls-1" d="m117.97,4.88c-.41-.88-1.06-1.6-1.85-2.1-.79-.5-1.72-.78-2.68-.78-1.73,0-3.31.87-4.24,2.32-.92,1.45-1.04,3.25-.31,4.82,4.64,9.94,6.99,20.59,6.99,31.63s-2.35,21.68-6.99,31.62c-.73,1.57-.62,3.38.31,4.83.93,1.45,2.51,2.32,4.23,2.32,1.94,0,3.72-1.13,4.54-2.88,5.27-11.28,7.94-23.35,7.94-35.89s-2.67-24.61-7.94-35.89Z"/></g></svg>